<svg xmlns="http://www.w3.org/2000/svg" viewBox="0 0 600.32 284.73"><defs><style>.a{fill:#dddcdc;}.b{fill:#284d24;}.c{fill:#ada334;}.d{fill:#acd184;}.e{fill:#5c9741;}.f{fill:#fff;}</style></defs><title>Untitled-1</title><path class="a" d="M213.35,187.7q0-20.15,0-40.3c4.61,0.46,9.22.89,13.83,1.37,6.65,0.7,13.3,1.44,20,2.13,6.84,0.71,13.69,1.38,20.54,2.09,6.66,0.69,13.3,1.44,20,2.12,7,0.72,14,1.37,21,2.11,10.15,1.06,20.28,2.25,30.43,3.24,9.64,0.93,19.25,2.24,28.94,2.74,1.44,0.07,2.88,0,4.33,0a60.52,60.52,0,0,0-10.86-6.94c-12.91-6.66-26.68-10.91-40.73-14.27a358,358,0,0,0-41.49-7.17c-10.28-1.21-20.58-2.17-30.91-2.78a147.8,147.8,0,0,0-21.07.26c-4.62.39-9.24,0.8-13.85,1.2q0-65.95,0-131.89c0-1.33.41-1.62,1.66-1.62Q357.37,0,499.75,0c1.41,0,1.67.45,1.67,1.76q-0.05,41.95,0,83.89a34.14,34.14,0,0,1-4.5,3c-6.11,4.08-11.74,8.79-17.44,13.4-4.54,3.68-9,7.41-13.53,11.13-3.79,3.12-7.83,5.89-11.82,8.73l-0.07.11,0.05-.13a3.92,3.92,0,0,0,2-.46c5.74-2.22,11.51-4.34,17.19-6.7,4.82-2,9.72-3.82,14.56-5.77,4.46-1.8,8.9-3.65,13.47-5.15,0,1.17.06,2.34,0.06,3.51q0,17.93,0,35.85c0,0.6-.29,1.37.64,1.64q-10.37,1.74-20.73,3.47c-7.61,1.26-15.21,2.6-22.88,3.5l-8.47,1a57.13,57.13,0,0,0,6.4.59l30,1.44,15.29,0.74a1.78,1.78,0,0,0-.28,1.33q0,12.75,0,25.5c-14.91-7-30.7-10-47.1-10.19,6,4.59,12,9,18,13.48l29.43,21.82a2,2,0,0,0-.3,1.73q0,36.8,0,73.61c0,1.84,0,1.85-1.8,1.85q-142.22,0-284.44,0c-1.35,0-1.84-.24-1.83-1.75,0.07-11.45,0-22.89,0-34.34,0.56,0,1.12-.07,1.68-0.07q125.2,0,250.4,0c1.35,0,1.6-.41,1.59-1.65q-0.06-28.64,0-57.29c0-2.21.18-1.88-1.86-1.88H214.75C214.28,187.77,213.82,187.73,213.35,187.7Zm159.09-47.46,0.08,0h-0.1a1.5,1.5,0,0,0-.53-1.36q-7.35-12.15-14.73-24.28L316.24,47.38c-0.81-1.33-1.64-2.65-2.59-4.19a8.69,8.69,0,0,0-.28,1,203.79,203.79,0,0,0-2,21.27,190.76,190.76,0,0,0,.47,23c0.53,5.84,1.08,11.67,2.86,17.29,1.89,6,5,11.1,10.28,14.68,3.94,2.66,8.36,4.16,12.87,5.48,6.29,1.84,12.66,3.4,18.78,5.79A78.39,78.39,0,0,1,372.44,140.25ZM491.59,34.34l-0.22-.2-0.76.32a175,175,0,0,0-40.46,25.69c-8.94,7.61-16.91,16.1-22.78,26.37-5,8.67-7.82,17.91-7.32,28a25.84,25.84,0,0,0,.7,5.28ZM388.25,107c-0.13-1.2-.18-2.42-0.4-3.61-1.07-5.73-1.86-11.5-2.76-17.26-0.94-6.08-1.85-12.17-2.87-18.24S380.37,56,379.41,50q-1.56-9.66-3.06-19.34c-0.39-2.53-.92-5-1.14-7.61-0.15-1.74-.61-1.91-2.12-1a29,29,0,0,0-4,2.82,23.4,23.4,0,0,0-6.53,8.45c-2.26,5.33-2,10.8-.9,16.25,1.63,8,5,15.33,8.73,22.54,2.78,5.45,5.76,10.79,8.61,16.21C382.22,94.49,385.51,100.57,388.25,107ZM436,129.18l0.09,0.39c6-.75,11.29-3.38,16.37-6.47l-0.13-.34ZM391.1,125c1-5.56-.37-10.75-2.13-15.89l-0.4.06Z"/><path class="b" d="M213.35,187.7c0.47,0,.93.07,1.4,0.07h250.4c2,0,1.86-.34,1.86,1.88q0,28.64,0,57.29c0,1.24-.25,1.65-1.59,1.65q-125.2-.05-250.4,0c-0.56,0-1.12,0-1.68.07s-1.4-.08-2.1-0.08H2c-2.26,0-1.93.18-1.93-2Q0,218,0,189.45c0-1.32.27-1.71,1.67-1.71q104.93,0.06,209.86,0C212.13,187.77,212.74,187.73,213.35,187.7ZM42.55,208.58c0-1.28,0-2.29,0-3.29,0-3.16,0-3.22-3-4.39-5.42-2.12-10.87-2.49-16.16.32a9.33,9.33,0,0,0-5.18,8.71c0,3.84,2.2,6.2,5.4,7.88a32.57,32.57,0,0,0,7.16,2.43A17.47,17.47,0,0,1,37,222.69a4.49,4.49,0,0,1,1.19,6.43,7.54,7.54,0,0,1-4.5,3.16c-3.33.93-6.49,0.17-9.54-1.22a34.49,34.49,0,0,1-6-3.8c0,2.14,0,4,0,5.94a1.05,1.05,0,0,0,.73.92,21.64,21.64,0,0,0,9.27,3.44c5.61,0.56,10.66-.67,14.38-5.25,3.13-3.85,3.52-11.28-2.76-14.6a31.38,31.38,0,0,0-7.39-2.59A20.53,20.53,0,0,1,26,212.83a3.93,3.93,0,0,1-1.47-5.47A5.82,5.82,0,0,1,27.26,205c3.47-1.54,6.85-1,10.2.4A23.85,23.85,0,0,1,42.55,208.58Zm396.8,22.32a1.73,1.73,0,0,1-.64-1.38c-1.36-4.67-2.67-9.35-4-14-0.36-1.24-.26-3-1.26-3.58s-2.56-.11-3.86-0.2a1.18,1.18,0,0,0-1.42,1.08c-1.66,6-3.39,12.05-5.11,18.1a1.34,1.34,0,0,1-.52-1c-1.4-4.95-2.81-9.89-4.21-14.84-0.94-3.32-.93-3.32-4.37-3.32a4.84,4.84,0,0,1-.7,0c-1.09-.16-1.33.14-1,1.25,2.32,6.81,4.56,13.65,6.84,20.47,0.4,1.2.51,2.87,1.35,3.43s2.53,0.13,3.83.23a1.11,1.11,0,0,0,1.35-1c1-3.55,2.07-7.09,3.11-10.64,0.74-2.5,1.48-5,2.31-7.78,0.22,0.6.35,0.88,0.43,1.18q2,7.22,4.06,14.45c1.06,3.79,1.05,3.77,5,3.77a1.37,1.37,0,0,0,1.57-1.14c1.71-5.29,3.48-10.57,5.24-15.84,0.92-2.76,1.85-5.52,2.82-8.4-1.52,0-2.84.09-4.14,0-1-.09-1.32.38-1.56,1.26C442.81,219,441.07,224.92,439.35,230.9Zm-312-12.37q0,7.31,0,14.63c0,1.26-.44,2.94.2,3.67s2.48,0.14,3.77.29c1,0.12,1.27-.19,1.25-1.2-0.06-4.5,0-9-.05-13.5,0-1.2.33-1.46,1.48-1.46,3.51,0,7,.3,10.5-0.45,6.14-1.33,9.58-6,8.91-12.16-0.56-5.11-4.7-8.44-10.64-8.49-4.73,0-9.47,0-14.2,0-1,0-1.24.31-1.23,1.26C127.41,206.9,127.39,212.71,127.39,218.53Zm65.7,9.51a18.4,18.4,0,0,1-6.13,4.15c-5.27,1.94-10.49-.8-11.65-6.1-0.37-1.71-.37-1.72,1.44-1.72h16c0.52,0,1.15.22,1.15-.74,0-4-1.54-9.05-6.37-11.37a12.66,12.66,0,0,0-16.7,6.27c-3.11,6.75-.26,15.18,6.17,18,5,2.18,9.78,1.33,14.41-1.24,1.17-.65,1.85-1.35,1.67-2.82A38.1,38.1,0,0,1,193.09,228Zm160.8,0.16c-0.59.47-1,.77-1.36,1.09a14.47,14.47,0,0,1-5.58,3.15,8.52,8.52,0,0,1-10.88-6.53c-0.27-1.43.16-1.59,1.41-1.58,5.35,0.06,10.7,0,16,0,0.48,0,1.18.31,1.21-.67,0.13-4.18-1.67-10-7.57-11.93a12.7,12.7,0,0,0-15.76,7.51c-2.61,6.7.32,14.64,6.56,17.29,5.49,2.33,10.63,1.14,15.46-2a0.85,0.85,0,0,0,.46-0.79C353.87,232,353.88,230.22,353.88,228.2Zm-115.94.33a0.47,0.47,0,0,0-.63.12,17,17,0,0,1-4.72,3.25c-5.46,2.39-11.14-.22-12.4-5.71-0.4-1.75-.35-1.82,1.41-1.82h16c0.51,0,1.15.23,1.16-.73,0.06-4.69-2-10-7.62-11.89a12.56,12.56,0,0,0-15,6,14.11,14.11,0,0,0,2.56,16.66c5.22,4.77,13.3,4,18.74.14a0.9,0.9,0,0,0,.46-0.8C237.94,232,237.94,230.22,237.94,228.53Zm143.25-.5a16.8,16.8,0,0,1-6.83,4.38,8.46,8.46,0,0,1-11-6.51c-0.27-1.26-.09-1.59,1.25-1.57,5.39,0.08,10.79,0,16.18,0,0.58,0,1.24.22,1.24-.81,0-5.53-2.83-11.59-10.18-12.35a12.58,12.58,0,0,0-13.12,7.88,14.11,14.11,0,0,0,3.42,15.48c5.29,4.65,13.28,3.72,18.64-.1a0.88,0.88,0,0,0,.39-0.82C381.19,231.87,381.19,230.1,381.19,228Zm22.14,5c0.13,0.47.2,0.69,0.25,0.92,0.22,1-.38,2.49.46,3s2.1,0.06,3.16.17,1.3-.27,1.3-1.3c0-6.75,0-13.5,0-20.25,0-1.25.56-3-.25-3.62s-2.41-.13-3.67-0.23c-0.93-.07-1.17.24-1.16,1.16,0.05,3.61,0,7.22,0,10.83a11.18,11.18,0,0,1-1.84,6.38,6,6,0,0,1-6.7,2.68c-2.11-.63-3.28-2.62-3.28-5.62,0-3.8,0-7.59,0-11.39,0-1.3.57-3-.23-3.77s-2.59-.16-3.93-0.24h-0.14c-0.63-.08-0.79.21-0.79,0.81,0,5.67-.11,11.35.09,17,0.17,4.89,3.57,8,8.31,8.14C398.53,237.8,401.26,236.21,403.34,233ZM279.27,218.68c0-1.62-.05-3,0-4.33a1.34,1.34,0,0,0-1-1.46,18.51,18.51,0,0,0-7.88-1.79c-3.08,0-6,.63-8.26,2.88a6.17,6.17,0,0,0,1.52,10.23,18.57,18.57,0,0,0,3.81,1.39,35.33,35.33,0,0,1,6.19,1.79,2.61,2.61,0,0,1,1.84,2.41,2.76,2.76,0,0,1-1.77,2.5,7.87,7.87,0,0,1-1.71.6c-3.55.74-6.76-.24-9.79-2-0.7-.41-1.36-0.88-2.16-1.4,0,1.66,0,3.11,0,4.56a1.34,1.34,0,0,0,.84,1.41,18,18,0,0,0,10.43,2.2,11.41,11.41,0,0,0,7.73-3.54,6.39,6.39,0,0,0-1.78-10.39,23.11,23.11,0,0,0-5.28-1.84,17.51,17.51,0,0,1-5.19-1.66c-1.66-1-1.66-2.62,0-3.68a7.15,7.15,0,0,1,4.33-.88C274.08,215.75,276.62,217,279.27,218.68ZM67.61,216c-0.07-.61-0.09-0.78-0.1-1-0.3-3.31-.3-3.26-3.62-3.31-1.1,0-1.29.34-1.29,1.34,0,6.75,0,13.5,0,20.25,0,1.21-.4,2.84.21,3.53s2.39,0.14,3.63.28c1,0.11,1.16-.28,1.15-1.17,0-3.66-.06-7.31,0-11,0.06-3.11.94-5.93,3.5-7.94,2.72-2.14,7.81-1.78,8.23,3.29,0.36,4.3.06,8.62,0.16,12.92,0,1.25-.54,2.94.22,3.63s2.5,0.16,3.81.23H83.7c0.61,0.09.81-.19,0.81-0.79,0-5.91.07-11.82-.1-17.72a7.59,7.59,0,0,0-6-7.13C74,210.41,70.27,211.49,67.61,216Zm241.79,0.11c0-4.17,0-8.35,0-12.52,0-1.2.55-2.84-.25-3.49s-2.33-.13-3.53-0.24-1.43.23-1.42,1.37q0.06,17.31,0,34.62c0,1,.22,1.33,1.3,1.32,6.24-.06,12.48,0,18.72,0,1.21,0,2.81.53,3.51-.21s0.12-2.41.25-3.66c0.1-1-.29-1.15-1.18-1.14-5.35,0-10.7,0-16,0-1.15,0-1.38-.35-1.37-1.42C309.43,225.84,309.4,221,309.4,216.08ZM104.89,232.34c-0.63.22-1.1,0.42-1.58,0.56-3.38,1-5.29-.45-5.29-3.93,0-3.09,0-6.19,0-9.28,0-1.2-.54-2.8.27-3.5s2.24-.19,3.4-0.19c3.36,0,3.34,0,3.21-3.34a0.79,0.79,0,0,0-1-.93c-1.55,0-3.1,0-4.64,0-1,0-1.33-.2-1.28-1.23,0.08-1.83,0-3.66,0-5.49,0-.4.13-0.91-0.55-0.91-1.27,0-2.67-.31-3.75.14-0.78.32-.23,1.79-0.42,2.74a11.07,11.07,0,0,0-.13,1.26c-0.09,1.07.2,2.42-.34,3.14s-2.09.19-3.18,0.33H89.51c-1.41,0-.86,1.13-0.75,1.62,0.19,0.88-1,2.26.76,2.6,1.08,0.21,2.65-.49,3.2.28s0.17,2.25.2,3.42c0,0.28,0,.56,0,0.84,0.1,4.08-.25,8.16.19,12.23a5,5,0,0,0,4.31,4.7,14.67,14.67,0,0,0,6-.1,1.57,1.57,0,0,0,1.5-2A28.7,28.7,0,0,1,104.89,232.34Zm106.87,0.08c-0.88.25-1.62,0.53-2.39,0.66-2.59.45-4.42-.82-4.44-3.15-0.05-4.36,0-8.72,0-13.08,0-.67.18-0.89,0.87-0.87,1.45,0,2.92-.08,4.36,0s1.74-.28,1.68-1.66c-0.12-2.61,0-2.61-2.67-2.62-1.35,0-3.16.47-3.93-.22s-0.26-2.64-.27-4c0-3.42,0-3.38-3.46-3.38a1,1,0,0,0-1.22,1.18c0,1.12-.12,2.25-0.17,3.37-0.15,3.05-.15,3.11-3.22,3-1.08,0-1.31.31-1.29,1.33,0.06,2.94,0,3,2.89,2.91,1.23,0,1.43.36,1.42,1.48-0.07,4.69,0,9.38,0,14.07,0,3.46,1.57,5.4,4.89,6a13.28,13.28,0,0,0,6.25-.42,0.9,0.9,0,0,0,.78-1C211.74,234.92,211.76,233.7,211.76,232.42Zm36.86-16.05-0.06-1.19c-0.17-3.47-.17-3.4-3.57-3.48-1.19,0-1.34.42-1.33,1.43,0,6.7,0,13.4,0,20.11,0,1.25-.55,2.89.25,3.64s2.41,0.1,3.66.24c1.07,0.12,1.2-.37,1.19-1.29,0-3.56,0-7.12,0-10.69a10.63,10.63,0,0,1,1.74-6A6.34,6.34,0,0,1,256,216c0.84,0,1.82,1,2.37.25,0.43-.59.1-1.72,0.11-2.61,0-.47,0-0.94,0-1.41a0.67,0.67,0,0,0-.47-0.75c-2.12-.8-5.92.2-7.53,2A15.81,15.81,0,0,0,248.62,216.37Zm-85.07,8.12c0-3,0-6,0-9,0-1.2.52-2.77-.21-3.52s-2.32-.11-3.51-0.25-1.33.25-1.32,1.31c0.05,6.75,0,13.5,0,20.25,0,1.25-.57,3,0.27,3.61s2.42,0.13,3.68.23c0.9,0.07,1.09-.26,1.08-1.11C163.53,232.18,163.55,228.33,163.55,224.49ZM50,224.34c0,3.89,0,7.78,0,11.67,0,0.83.16,1.2,1.07,1.11a13.55,13.55,0,0,1,2.67,0c1,0.11,1.34-.22,1.33-1.29-0.05-6.75,0-13.5,0-20.25,0-1.25.57-3-.26-3.62s-2.42-.14-3.68-0.23c-0.87-.07-1.11.21-1.09,1.08C50.05,216.65,50,220.49,50,224.34Zm64.86-2.82c-2.16,0-4.31,0-6.47,0-0.72,0-1,.18-1,0.94,0.06,1.12,0,2.25,0,3.37a0.67,0.67,0,0,0,.82.81q6.54,0,13.08,0a0.67,0.67,0,0,0,.82-0.8c0-1.12-.05-2.25,0-3.37,0-.76-0.25-1-1-0.94C119.1,221.55,117,221.52,114.88,221.52Zm176.84,0c-2.16,0-4.31,0-6.47,0-0.69,0-1,.14-1,0.92a31.71,31.71,0,0,1,0,3.23,0.77,0.77,0,0,0,.94,1q6.4,0,12.8,0c0.71,0,1-.17,1-0.94a31,31,0,0,1,0-3.23c0-.75-0.21-1-1-1C295.94,221.55,293.83,221.52,291.72,221.52Zm-127.88-18.2c0-2.53-1.76-4-3.79-3.23-1.45.58-1.74,1.87-1.8,3.2a3.08,3.08,0,0,0,2,3.22C162.16,207.17,163.82,205.7,163.84,203.32Zm-114.1-.09c0,2,1.08,3.43,2.71,3.46s2.85-1.45,2.88-3.38-1.19-3.42-2.95-3.4S49.74,201.21,49.74,203.23Z"/><path class="c" d="M213.36,133.52c4.62-.4,9.24-0.81,13.85-1.2a147.8,147.8,0,0,1,21.07-.26c10.33,0.61,20.63,1.57,30.91,2.78A358,358,0,0,1,320.69,142c14.06,3.36,27.82,7.61,40.73,14.27a60.52,60.52,0,0,1,10.86,6.94c-1.44,0-2.89.06-4.33,0-9.68-.5-19.29-1.81-28.94-2.74-10.15-1-20.29-2.17-30.43-3.24-7-.73-14-1.38-21-2.11-6.66-.69-13.31-1.43-20-2.12-6.84-.71-13.69-1.38-20.54-2.09-6.65-.69-13.3-1.44-20-2.13-4.61-.48-9.22-0.92-13.83-1.37l-25.58-2.67c-8.52-.9-17-1.82-25.57-2.71-5.26-.55-10.53-1.07-15.79-1.82,0.81,0,1.63,0,2.44,0a194.49,194.49,0,0,0,20.77-1c7-.65,14-1.59,20.92-2.56,6.68-.94,13.37-1.8,20.05-2.74A9.18,9.18,0,0,0,213.36,133.52Z"/><path class="c" d="M501.7,207.51l-29.43-21.82c-6-4.45-12-8.89-18-13.48,16.4,0.22,32.19,3.16,47.1,10.19,14.22,6.82,25.9,16.88,36.31,28.55,8.05,9,15.27,18.73,22.67,28.27s14.84,18.72,23.38,27.11c1.94,1.9,4,3.69,6,5.53a0.41,0.41,0,0,1-.23.47L534.94,232l-32.65-24.14C502.11,207.75,501.9,207.64,501.7,207.51Z"/><path class="c" d="M501.68,155.57l-15.29-.74-30-1.44a57.13,57.13,0,0,1-6.4-.59l8.47-1c7.67-.9,15.27-2.24,22.88-3.5q10.37-1.72,20.73-3.47c5.49-.66,11-1.42,16.47-1.89a154,154,0,0,1,21.22-.36,107.93,107.93,0,0,1,27.29,5,114.93,114.93,0,0,1,25.31,11.74c0.18,0.11.34,0.26,0.83,0.65Z"/><path class="d" d="M454.1,122c4-2.85,8-5.61,11.82-8.73,4.5-3.72,9-7.45,13.53-11.13,5.7-4.62,11.33-9.32,17.44-13.4a34.14,34.14,0,0,0,4.5-3c2.29-1.16,4.56-2.37,6.89-3.46,5.24-2.47,10.71-4,16.57-3.59,6.68,0.48,12.14,3.51,16.76,8.22,0.77,0.78.14,1-.48,1.22-4.83,1.91-9.66,3.83-14.5,5.74l-24.07,9.45a13.55,13.55,0,0,0-1.24.64c-4.57,1.5-9,3.35-13.47,5.15-4.84,2-9.74,3.77-14.56,5.77-5.67,2.36-11.45,4.48-17.19,6.7a3.92,3.92,0,0,1-2,.46h0Z"/><path class="d" d="M589.52,272.34a0.41,0.41,0,0,0,.23-0.47,13.58,13.58,0,0,1,2.64,2.35l-0.13.13C591.34,273.69,590.18,273.35,589.52,272.34Z"/><path class="d" d="M597.68,278.5c1.19,0.15,1.88,1,2.63,1.85a7.09,7.09,0,0,1-2.63-1.86h0Z"/><path class="d" d="M592.38,274.23a0.87,0.87,0,0,1,.71.73,1.36,1.36,0,0,1-.84-0.6Z"/><path class="d" d="M597.69,278.5a0.44,0.44,0,0,1-.46-0.4,0.14,0.14,0,0,1,.1-0.08,0.38,0.38,0,0,1,.35.48h0Z"/><path class="d" d="M594.31,275.68l0.37,0.34-0.15.08-0.21-.43h0Z"/><path class="d" d="M593.74,275.41l0.57,0.28h0a0.53,0.53,0,0,1-.57-0.28v0Z"/><path class="d" d="M593.75,275.39l-0.17-.13a0.19,0.19,0,0,1,.1,0,0.44,0.44,0,0,1,.05.12v0Z"/><path class="e" d="M372.44,140.25a78.36,78.36,0,0,0-15.78-8.54c-6.12-2.4-12.49-4-18.78-5.79-4.5-1.32-8.93-2.82-12.87-5.48-5.31-3.58-8.39-8.72-10.28-14.68-1.78-5.62-2.33-11.45-2.86-17.29a190.76,190.76,0,0,1-.47-23,203.79,203.79,0,0,1,2-21.27,8.69,8.69,0,0,1,.28-1c1,1.54,1.78,2.86,2.59,4.19l40.92,67.25q7.38,12.13,14.73,24.28a1.5,1.5,0,0,1,.53,1.36Z"/><path class="b" d="M491.59,34.34l-70.83,85.48a25.84,25.84,0,0,1-.7-5.28c-0.5-10.1,2.36-19.35,7.32-28,5.87-10.27,13.83-18.76,22.78-26.37a175,175,0,0,1,40.46-25.69l0.76-.32Z"/><path class="d" d="M388.25,107c-2.74-6.41-6-12.48-9.24-18.59-2.85-5.41-5.83-10.76-8.61-16.21-3.68-7.21-7.1-14.56-8.73-22.54-1.11-5.45-1.37-10.92.9-16.25a23.4,23.4,0,0,1,6.53-8.45,29,29,0,0,1,4-2.82c1.51-.92,2-0.75,2.12,1,0.23,2.56.75,5.07,1.14,7.61q1.5,9.67,3.06,19.34c1,5.94,1.82,11.89,2.81,17.82s1.93,12.16,2.87,18.24c0.89,5.76,1.69,11.53,2.76,17.26C388.07,104.55,388.12,105.77,388.25,107Z"/><path class="d" d="M436,129.18l16.33-6.43,0.13,0.34c-5.08,3.09-10.35,5.73-16.37,6.47Z"/><path class="d" d="M391.1,125l-2.53-15.83,0.4-.06C390.73,114.28,392.11,119.47,391.1,125Z"/><path class="d" d="M454.08,121.94l-0.05.13,0.07-.11h0Z"/><path class="e" d="M372.42,140.27h0.1l-0.08,0Z"/><path class="f" d="M42.55,208.58a23.85,23.85,0,0,0-5.09-3.16c-3.35-1.42-6.74-1.93-10.2-.4a5.82,5.82,0,0,0-2.74,2.33A3.93,3.93,0,0,0,26,212.83a20.53,20.53,0,0,0,6.44,2.29,31.38,31.38,0,0,1,7.39,2.59c6.29,3.33,5.89,10.75,2.76,14.6-3.73,4.58-8.77,5.81-14.38,5.25a21.64,21.64,0,0,1-9.27-3.44,1.05,1.05,0,0,1-.73-0.92c0-1.9,0-3.8,0-5.94a34.49,34.49,0,0,0,6,3.8c3.05,1.39,6.2,2.16,9.54,1.22a7.54,7.54,0,0,0,4.5-3.16A4.49,4.49,0,0,0,37,222.69a17.47,17.47,0,0,0-6.22-2.46,32.57,32.57,0,0,1-7.16-2.43c-3.2-1.67-5.41-4-5.4-7.88a9.33,9.33,0,0,1,5.18-8.71c5.29-2.81,10.74-2.45,16.16-.32,3,1.17,3,1.23,3,4.39C42.55,206.29,42.55,207.3,42.55,208.58Z"/><path class="f" d="M439.35,230.9c1.72-6,3.46-11.95,5.14-17.93,0.25-.88.52-1.36,1.56-1.26,1.3,0.12,2.62,0,4.14,0-1,2.88-1.9,5.64-2.82,8.4-1.76,5.28-3.53,10.55-5.24,15.84a1.37,1.37,0,0,1-1.57,1.14c-4,0-4,0-5-3.77q-2-7.23-4.06-14.45c-0.08-.3-0.21-0.58-0.43-1.18-0.83,2.79-1.57,5.28-2.31,7.78-1,3.54-2.1,7.08-3.11,10.64a1.11,1.11,0,0,1-1.35,1c-1.3-.1-2.92.38-3.83-0.23s-0.95-2.24-1.35-3.43c-2.28-6.83-4.52-13.66-6.84-20.47-0.38-1.11-.13-1.41,1-1.25a4.84,4.84,0,0,0,.7,0c3.44,0,3.43,0,4.37,3.32,1.4,4.95,2.81,9.89,4.21,14.84a1.34,1.34,0,0,0,.52,1c1.71-6,3.44-12.06,5.11-18.1a1.18,1.18,0,0,1,1.42-1.08c1.31,0.09,2.88-.38,3.86.2s0.9,2.34,1.26,3.58c1.36,4.67,2.67,9.35,4,14A1.73,1.73,0,0,0,439.35,230.9Z"/><path class="f" d="M127.39,218.53c0-5.81,0-11.63,0-17.44,0-1,.21-1.27,1.23-1.26,4.73,0.06,9.47,0,14.2,0,5.94,0.05,10.08,3.38,10.64,8.49,0.68,6.12-2.76,10.83-8.91,12.16-3.47.75-7,.47-10.5,0.45-1.15,0-1.5.26-1.48,1.46,0.08,4.5,0,9,.05,13.5,0,1-.28,1.32-1.25,1.2-1.29-.15-3,0.56-3.77-0.29s-0.19-2.41-.2-3.67Q127.38,225.84,127.39,218.53Zm5.2-8.21a34.7,34.7,0,0,0,.16,5.57,50.83,50.83,0,0,0,5.59.1,15.19,15.19,0,0,0,5.28-.51c2.93-1,4.62-3.33,4.26-6-0.38-2.85-2.47-4.65-5.67-4.74-2.9-.08-5.81,0-8.71-0.05-0.77,0-1,.26-0.93,1C132.61,207.22,132.54,208.77,132.59,210.32Z"/><path class="f" d="M193.09,228a38.1,38.1,0,0,0,0,4.4c0.18,1.47-.49,2.17-1.67,2.82-4.63,2.57-9.42,3.42-14.41,1.24-6.43-2.8-9.28-11.23-6.17-18a12.66,12.66,0,0,1,16.7-6.27c4.83,2.31,6.35,7.36,6.37,11.37,0,1-.63.74-1.15,0.74h-16c-1.81,0-1.81,0-1.44,1.72,1.16,5.31,6.38,8,11.65,6.1A18.4,18.4,0,0,0,193.09,228Zm-5.14-7.88c-0.67-3.09-2.68-4.84-5.55-4.92a6.8,6.8,0,0,0-6.42,4.92h12Z"/><path class="f" d="M353.88,228.2c0,2,0,3.78,0,5.54a0.85,0.85,0,0,1-.46.79c-4.84,3.14-10,4.33-15.46,2-6.24-2.65-9.18-10.59-6.56-17.29a12.7,12.7,0,0,1,15.76-7.51c5.9,2,7.71,7.75,7.57,11.93,0,1-.73.67-1.21,0.67-5.35,0-10.7,0-16,0-1.25,0-1.68.15-1.41,1.58a8.52,8.52,0,0,0,10.88,6.53,14.47,14.47,0,0,0,5.58-3.15C352.9,229,353.29,228.67,353.88,228.2Zm-17.12-8c0.24,0,.46,0,0.67,0,3.56,0,7.11,0,10.67,0,0.75,0,.71-0.34.55-0.86a5.44,5.44,0,0,0-2.72-3.4C342.39,214.13,338.2,216,336.77,220.18Z"/><path class="f" d="M237.94,228.53c0,1.69,0,3.45,0,5.21a0.9,0.9,0,0,1-.46.8c-5.44,3.82-13.52,4.63-18.74-.14a14.11,14.11,0,0,1-2.56-16.66,12.56,12.56,0,0,1,15-6c5.6,1.84,7.68,7.2,7.62,11.89,0,1-.66.73-1.16,0.73h-16c-1.77,0-1.81.07-1.41,1.82,1.26,5.49,6.93,8.11,12.4,5.71a17,17,0,0,0,4.72-3.25A0.47,0.47,0,0,1,237.94,228.53Zm-17.23-8.31c3.87,0,7.61,0,11.34,0,0.82,0,.83-0.35.64-0.93a5.44,5.44,0,0,0-4.06-3.86C225.37,214.66,222.34,216.44,220.72,220.22Z"/><path class="f" d="M381.19,228c0,2.07,0,3.84,0,5.62a0.88,0.88,0,0,1-.39.82c-5.36,3.82-13.35,4.75-18.64.1a14.11,14.11,0,0,1-3.42-15.48,12.58,12.58,0,0,1,13.12-7.88C379.23,212,382,218,382.05,223.55c0,1-.66.81-1.24,0.81-5.39,0-10.79.05-16.18,0-1.34,0-1.53.31-1.25,1.57a8.46,8.46,0,0,0,11,6.51A16.8,16.8,0,0,0,381.19,228Zm-17.29-7.81c3.48,0,6.7,0,9.93,0,0.73,0,1.88.36,2.09-.18,0.32-.83-0.35-1.75-0.9-2.51l-0.18-.22a5.57,5.57,0,0,0-5.54-1.9C366.62,215.91,365.06,217.67,363.91,220.22Z"/><path class="f" d="M403.34,233c-2.08,3.21-4.81,4.8-8.46,4.7-4.74-.13-8.14-3.26-8.31-8.14-0.2-5.67-.06-11.34-0.09-17,0-.6.16-0.89,0.79-0.81h0.14c1.35,0.07,3.07-.55,3.93.24s0.22,2.48.23,3.77c0,3.8,0,7.59,0,11.39,0,3,1.17,5,3.28,5.62a6,6,0,0,0,6.7-2.68,11.18,11.18,0,0,0,1.84-6.38c0-3.61,0-7.22,0-10.83,0-.92.23-1.23,1.16-1.16,1.25,0.1,2.9-.4,3.67.23s0.25,2.37.25,3.62c0,6.75,0,13.5,0,20.25,0,1-.22,1.42-1.3,1.3s-2.4.33-3.16-.17-0.24-2-.46-3C403.53,233.7,403.46,233.48,403.34,233Z"/><path class="f" d="M279.27,218.68c-2.66-1.66-5.19-2.93-8.14-3a7.15,7.15,0,0,0-4.33.88c-1.64,1.06-1.64,2.66,0,3.68a17.51,17.51,0,0,0,5.19,1.66,23.11,23.11,0,0,1,5.28,1.84,6.39,6.39,0,0,1,1.78,10.39,11.41,11.41,0,0,1-7.73,3.54,18,18,0,0,1-10.43-2.2,1.34,1.34,0,0,1-.84-1.41c0.05-1.45,0-2.9,0-4.56,0.8,0.52,1.46,1,2.16,1.4,3,1.79,6.24,2.76,9.79,2a7.87,7.87,0,0,0,1.71-.6,2.76,2.76,0,0,0,1.77-2.5,2.61,2.61,0,0,0-1.84-2.41,35.33,35.33,0,0,0-6.19-1.79,18.57,18.57,0,0,1-3.81-1.39A6.17,6.17,0,0,1,262.17,214c2.29-2.25,5.19-2.86,8.26-2.88a18.51,18.51,0,0,1,7.88,1.79,1.34,1.34,0,0,1,1,1.46C279.22,215.7,279.27,217.06,279.27,218.68Z"/><path class="f" d="M67.61,216c2.66-4.49,6.38-5.57,10.83-4.51a7.59,7.59,0,0,1,6,7.13c0.17,5.9.07,11.81,0.1,17.72,0,0.6-.19.88-0.81,0.79H83.56c-1.3-.06-3,0.53-3.81-0.23s-0.19-2.38-.22-3.63c-0.1-4.31.2-8.62-.16-12.92-0.42-5.08-5.51-5.43-8.23-3.29-2.56,2-3.44,4.83-3.5,7.94-0.07,3.66-.05,7.31,0,11,0,0.89-.2,1.28-1.15,1.17-1.24-.14-2.91.53-3.63-0.28s-0.21-2.32-.21-3.53c0-6.75,0-13.5,0-20.25,0-1,.18-1.36,1.29-1.34,3.31,0.05,3.31,0,3.62,3.31C67.52,215.19,67.54,215.37,67.61,216Z"/><path class="f" d="M309.4,216.08c0,4.88,0,9.76,0,14.64,0,1.07.22,1.43,1.37,1.42,5.35-.07,10.69,0,16,0,0.89,0,1.28.18,1.18,1.14-0.13,1.25.5,2.85-.25,3.66s-2.31.21-3.51,0.21c-6.24,0-12.48,0-18.72,0-1.08,0-1.3-.29-1.3-1.32q0.06-17.31,0-34.62c0-1.14.34-1.47,1.42-1.37s2.78-.37,3.53.24,0.24,2.29.25,3.49C309.42,207.73,309.4,211.91,309.4,216.08Z"/><path class="f" d="M104.89,232.34a28.7,28.7,0,0,0,0,3,1.57,1.57,0,0,1-1.5,2,14.67,14.67,0,0,1-6,.1,5,5,0,0,1-4.31-4.7c-0.44-4.07-.09-8.15-0.19-12.23,0-.28,0-0.56,0-0.84,0-1.17.36-2.63-.2-3.42s-2.12-.06-3.2-0.28c-1.72-.34-0.57-1.73-0.76-2.6-0.11-.49-0.66-1.64.75-1.62h0.14c1.09-.14,2.53.53,3.18-0.33s0.25-2.07.34-3.14a11.07,11.07,0,0,1,.13-1.26c0.18-.94-0.36-2.41.42-2.74,1.08-.45,2.48-0.13,3.75-0.14,0.68,0,.55.51,0.55,0.91,0,1.83.06,3.66,0,5.49,0,1,.33,1.27,1.28,1.23,1.54-.07,3.09,0,4.64,0a0.79,0.79,0,0,1,1,.93c0.13,3.34.16,3.33-3.21,3.34-1.17,0-2.72-.4-3.4.19s-0.25,2.29-.27,3.5c0,3.09,0,6.19,0,9.28,0,3.48,1.91,4.9,5.29,3.93C103.79,232.76,104.26,232.56,104.89,232.34Z"/><path class="f" d="M211.76,232.42c0,1.28,0,2.5,0,3.71a0.9,0.9,0,0,1-.78,1,13.28,13.28,0,0,1-6.25.42c-3.32-.63-4.87-2.57-4.89-6,0-4.69,0-9.38,0-14.07,0-1.12-.19-1.53-1.42-1.48-2.88.1-2.83,0-2.89-2.91,0-1,.21-1.35,1.29-1.33,3.07,0.06,3.07,0,3.22-3,0.06-1.12.17-2.25,0.17-3.37a1,1,0,0,1,1.22-1.18c3.44,0,3.42,0,3.46,3.38,0,1.39-.62,3.24.27,4s2.58,0.21,3.93.22c2.64,0,2.54,0,2.67,2.62,0.07,1.38-.33,1.78-1.68,1.66s-2.91,0-4.36,0c-0.68,0-.87.2-0.87,0.87,0,4.36,0,8.72,0,13.08,0,2.33,1.86,3.6,4.44,3.15C210.14,232.95,210.89,232.67,211.76,232.42Z"/><path class="f" d="M248.62,216.37a15.81,15.81,0,0,1,1.82-2.91c1.61-1.77,5.41-2.76,7.53-2a0.67,0.67,0,0,1,.47.75c0,0.47,0,.94,0,1.41,0,0.89.32,2-.11,2.61-0.54.74-1.53-.26-2.37-0.25a6.34,6.34,0,0,0-5.46,3.16,10.63,10.63,0,0,0-1.74,6c0,3.56,0,7.12,0,10.69,0,0.91-.12,1.4-1.19,1.29-1.25-.14-2.88.5-3.66-0.24s-0.24-2.39-.25-3.64c0-6.7,0-13.4,0-20.11,0-1,.14-1.46,1.33-1.43,3.41,0.07,3.41,0,3.57,3.48Z"/><path class="f" d="M163.55,224.49c0,3.84,0,7.69,0,11.53,0,0.85-.19,1.17-1.08,1.11-1.25-.1-2.89.39-3.68-0.23s-0.27-2.37-.27-3.61c0-6.75,0-13.5,0-20.25,0-1.05.25-1.43,1.32-1.31s2.77-.5,3.51.25,0.2,2.31.21,3.52C163.57,218.49,163.55,221.49,163.55,224.49Z"/><path class="f" d="M50,224.34c0-3.84,0-7.69,0-11.53,0-.87.22-1.15,1.09-1.08,1.26,0.1,2.89-.39,3.68.23s0.26,2.37.26,3.62c0,6.75,0,13.5,0,20.25,0,1.08-.29,1.4-1.33,1.29a13.55,13.55,0,0,0-2.67,0c-0.91.09-1.08-.28-1.07-1.11C50,232.12,50,228.23,50,224.34Z"/><path class="f" d="M114.88,221.52c2.11,0,4.22,0,6.33,0,0.72,0,1,.17,1,0.94-0.06,1.12,0,2.25,0,3.37a0.67,0.67,0,0,1-.82.8q-6.54,0-13.08,0a0.67,0.67,0,0,1-.82-0.81c0-1.12,0-2.25,0-3.37,0-.76.25-0.95,1-0.94C110.57,221.55,112.73,221.52,114.88,221.52Z"/><path class="f" d="M291.72,221.52c2.11,0,4.22,0,6.33,0,0.74,0,1,.21,1,1a31,31,0,0,0,0,3.23c0,0.76-.27.94-1,0.94q-6.4,0-12.8,0a0.77,0.77,0,0,1-.94-1,31.71,31.71,0,0,0,0-3.23c0-.78.29-0.93,1-0.92C287.41,221.54,289.56,221.52,291.72,221.52Z"/><path class="f" d="M163.84,203.32c0,2.38-1.68,3.85-3.61,3.2a3.08,3.08,0,0,1-2-3.22c0.05-1.33.35-2.62,1.8-3.2C162.08,199.27,163.86,200.79,163.84,203.32Z"/><path class="f" d="M49.74,203.23c0-2,1-3.3,2.65-3.32s3,1.39,2.95,3.4-1.29,3.4-2.88,3.38S49.73,205.28,49.74,203.23Z"/><path class="b" d="M132.59,210.32c0-1.54,0-3.09,0-4.64,0-.71.16-1,0.93-1,2.9,0,5.81,0,8.71.05,3.2,0.09,5.29,1.9,5.67,4.74,0.36,2.64-1.34,5-4.26,6a15.19,15.19,0,0,1-5.28.51,50.83,50.83,0,0,1-5.59-.1A34.7,34.7,0,0,1,132.59,210.32Z"/><path class="b" d="M187.95,220.17H176a6.8,6.8,0,0,1,6.42-4.92C185.26,215.33,187.28,217.08,187.95,220.17Z"/><path class="b" d="M336.77,220.18c1.43-4.14,5.63-6,9.16-4.21a5.44,5.44,0,0,1,2.72,3.4c0.17,0.53.21,0.87-.55,0.86-3.56,0-7.11,0-10.67,0C337.22,220.22,337,220.19,336.77,220.18Z"/><path class="b" d="M220.72,220.22c1.62-3.78,4.65-5.56,7.92-4.77a5.44,5.44,0,0,1,4.06,3.86c0.19,0.58.18,0.94-.64,0.93C228.33,220.2,224.59,220.22,220.72,220.22Z"/><path class="b" d="M363.91,220.22c1.15-2.55,2.71-4.31,5.4-4.81a5.57,5.57,0,0,1,5.54,1.9l0.18,0.22c0.55,0.76,1.22,1.69.9,2.51-0.21.53-1.36,0.17-2.09,0.18C370.61,220.23,367.38,220.22,363.91,220.22Z"/></svg>